<?xml version="1.0" encoding="UTF-8"?>
<svg xmlns="http://www.w3.org/2000/svg" xmlns:xlink="http://www.w3.org/1999/xlink" width="1200.95996" height="324" viewBox="0 0 1200.95996 324">
<defs>
<clipPath id="clip-0">
<path clip-rule="nonzero" d="M 20 5 L 333 5 L 333 318 L 20 318 Z M 20 5 "/>
</clipPath>
<clipPath id="clip-1">
<path clip-rule="nonzero" d="M 20.632812 317.269531 L 20.632812 5.613281 L 332.292969 317.269531 Z M 20.632812 317.269531 "/>
</clipPath>
<linearGradient id="linear-pattern-0" gradientUnits="userSpaceOnUse" x1="0" y1="1" x2="0" y2="-0.0000000200022" gradientTransform="matrix(311.65894, 0, 0, 311.65894, 20.632643, 5.6124)">
<stop offset="0" stop-color="rgb(99.998474%, 39.99939%, 0%)" stop-opacity="1"/>
<stop offset="0.00390625" stop-color="rgb(99.781799%, 39.968872%, 0.361633%)" stop-opacity="1"/>
<stop offset="0.0078125" stop-color="rgb(99.56665%, 39.93988%, 0.724792%)" stop-opacity="1"/>
<stop offset="0.0117188" stop-color="rgb(99.349976%, 39.910889%, 1.087952%)" stop-opacity="1"/>
<stop offset="0.015625" stop-color="rgb(99.134827%, 39.881897%, 1.451111%)" stop-opacity="1"/>
<stop offset="0.0195312" stop-color="rgb(98.918152%, 39.852905%, 1.812744%)" stop-opacity="1"/>
<stop offset="0.0234375" stop-color="rgb(98.703003%, 39.823914%, 2.175903%)" stop-opacity="1"/>
<stop offset="0.0273438" stop-color="rgb(98.486328%, 39.793396%, 2.539062%)" stop-opacity="1"/>
<stop offset="0.03125" stop-color="rgb(98.271179%, 39.764404%, 2.902222%)" stop-opacity="1"/>
<stop offset="0.0351562" stop-color="rgb(98.054504%, 39.735413%, 3.265381%)" stop-opacity="1"/>
<stop offset="0.0390625" stop-color="rgb(97.839355%, 39.706421%, 3.62854%)" stop-opacity="1"/>
<stop offset="0.0429688" stop-color="rgb(97.622681%, 39.675903%, 3.990173%)" stop-opacity="1"/>
<stop offset="0.046875" stop-color="rgb(97.407532%, 39.646912%, 4.353333%)" stop-opacity="1"/>
<stop offset="0.0507812" stop-color="rgb(97.190857%, 39.61792%, 4.716492%)" stop-opacity="1"/>
<stop offset="0.0546875" stop-color="rgb(96.975708%, 39.588928%, 5.079651%)" stop-opacity="1"/>
<stop offset="0.0585938" stop-color="rgb(96.759033%, 39.559937%, 5.44281%)" stop-opacity="1"/>
<stop offset="0.0625" stop-color="rgb(96.542358%, 39.530945%, 5.805969%)" stop-opacity="1"/>
<stop offset="0.0664062" stop-color="rgb(96.325684%, 39.500427%, 6.167603%)" stop-opacity="1"/>
<stop offset="0.0703125" stop-color="rgb(96.110535%, 39.471436%, 6.530762%)" stop-opacity="1"/>
<stop offset="0.0742188" stop-color="rgb(95.89386%, 39.442444%, 6.893921%)" stop-opacity="1"/>
<stop offset="0.078125" stop-color="rgb(95.678711%, 39.413452%, 7.25708%)" stop-opacity="1"/>
<stop offset="0.0820312" stop-color="rgb(95.462036%, 39.382935%, 7.620239%)" stop-opacity="1"/>
<stop offset="0.0859375" stop-color="rgb(95.246887%, 39.353943%, 7.983398%)" stop-opacity="1"/>
<stop offset="0.0898437" stop-color="rgb(95.030212%, 39.324951%, 8.345032%)" stop-opacity="1"/>
<stop offset="0.09375" stop-color="rgb(94.815063%, 39.295959%, 8.708191%)" stop-opacity="1"/>
<stop offset="0.0976563" stop-color="rgb(94.598389%, 39.266968%, 9.07135%)" stop-opacity="1"/>
<stop offset="0.101562" stop-color="rgb(94.38324%, 39.237976%, 9.434509%)" stop-opacity="1"/>
<stop offset="0.105469" stop-color="rgb(94.166565%, 39.207458%, 9.797668%)" stop-opacity="1"/>
<stop offset="0.109375" stop-color="rgb(93.951416%, 39.178467%, 10.160828%)" stop-opacity="1"/>
<stop offset="0.113281" stop-color="rgb(93.734741%, 39.149475%, 10.522461%)" stop-opacity="1"/>
<stop offset="0.117188" stop-color="rgb(93.518066%, 39.120483%, 10.88562%)" stop-opacity="1"/>
<stop offset="0.121094" stop-color="rgb(93.301392%, 39.089966%, 11.248779%)" stop-opacity="1"/>
<stop offset="0.125" stop-color="rgb(93.086243%, 39.060974%, 11.611938%)" stop-opacity="1"/>
<stop offset="0.128906" stop-color="rgb(92.869568%, 39.031982%, 11.975098%)" stop-opacity="1"/>
<stop offset="0.132812" stop-color="rgb(92.654419%, 39.002991%, 12.338257%)" stop-opacity="1"/>
<stop offset="0.136719" stop-color="rgb(92.437744%, 38.973999%, 12.69989%)" stop-opacity="1"/>
<stop offset="0.140625" stop-color="rgb(92.222595%, 38.945007%, 13.063049%)" stop-opacity="1"/>
<stop offset="0.144531" stop-color="rgb(92.00592%, 38.91449%, 13.426208%)" stop-opacity="1"/>
<stop offset="0.148438" stop-color="rgb(91.790771%, 38.885498%, 13.789368%)" stop-opacity="1"/>
<stop offset="0.152344" stop-color="rgb(91.574097%, 38.856506%, 14.151001%)" stop-opacity="1"/>
<stop offset="0.15625" stop-color="rgb(91.358948%, 38.827515%, 14.51416%)" stop-opacity="1"/>
<stop offset="0.160156" stop-color="rgb(91.142273%, 38.796997%, 14.877319%)" stop-opacity="1"/>
<stop offset="0.164062" stop-color="rgb(90.927124%, 38.768005%, 15.240479%)" stop-opacity="1"/>
<stop offset="0.167969" stop-color="rgb(90.710449%, 38.739014%, 15.603638%)" stop-opacity="1"/>
<stop offset="0.171875" stop-color="rgb(90.4953%, 38.710022%, 15.966797%)" stop-opacity="1"/>
<stop offset="0.175781" stop-color="rgb(90.278625%, 38.68103%, 16.32843%)" stop-opacity="1"/>
<stop offset="0.179687" stop-color="rgb(90.061951%, 38.652039%, 16.691589%)" stop-opacity="1"/>
<stop offset="0.183594" stop-color="rgb(89.845276%, 38.621521%, 17.054749%)" stop-opacity="1"/>
<stop offset="0.1875" stop-color="rgb(89.630127%, 38.592529%, 17.417908%)" stop-opacity="1"/>
<stop offset="0.191406" stop-color="rgb(89.413452%, 38.563538%, 17.781067%)" stop-opacity="1"/>
<stop offset="0.195313" stop-color="rgb(89.198303%, 38.534546%, 18.144226%)" stop-opacity="1"/>
<stop offset="0.199219" stop-color="rgb(88.981628%, 38.504028%, 18.505859%)" stop-opacity="1"/>
<stop offset="0.203125" stop-color="rgb(88.766479%, 38.475037%, 18.869019%)" stop-opacity="1"/>
<stop offset="0.207031" stop-color="rgb(88.549805%, 38.446045%, 19.232178%)" stop-opacity="1"/>
<stop offset="0.210938" stop-color="rgb(88.334656%, 38.417053%, 19.595337%)" stop-opacity="1"/>
<stop offset="0.214844" stop-color="rgb(88.117981%, 38.388062%, 19.958496%)" stop-opacity="1"/>
<stop offset="0.21875" stop-color="rgb(87.902832%, 38.35907%, 20.321655%)" stop-opacity="1"/>
<stop offset="0.222656" stop-color="rgb(87.686157%, 38.328552%, 20.683289%)" stop-opacity="1"/>
<stop offset="0.226562" stop-color="rgb(87.471008%, 38.299561%, 21.046448%)" stop-opacity="1"/>
<stop offset="0.230469" stop-color="rgb(87.254333%, 38.270569%, 21.409607%)" stop-opacity="1"/>
<stop offset="0.234375" stop-color="rgb(87.037659%, 38.241577%, 21.772766%)" stop-opacity="1"/>
<stop offset="0.238281" stop-color="rgb(86.820984%, 38.21106%, 22.135925%)" stop-opacity="1"/>
<stop offset="0.242188" stop-color="rgb(86.605835%, 38.182068%, 22.499084%)" stop-opacity="1"/>
<stop offset="0.246094" stop-color="rgb(86.38916%, 38.153076%, 22.860718%)" stop-opacity="1"/>
<stop offset="0.25" stop-color="rgb(86.174011%, 38.124084%, 23.223877%)" stop-opacity="1"/>
<stop offset="0.253906" stop-color="rgb(85.957336%, 38.095093%, 23.587036%)" stop-opacity="1"/>
<stop offset="0.257812" stop-color="rgb(85.742188%, 38.066101%, 23.950195%)" stop-opacity="1"/>
<stop offset="0.261719" stop-color="rgb(85.525513%, 38.035583%, 24.313354%)" stop-opacity="1"/>
<stop offset="0.265625" stop-color="rgb(85.310364%, 38.006592%, 24.676514%)" stop-opacity="1"/>
<stop offset="0.269531" stop-color="rgb(85.093689%, 37.9776%, 25.038147%)" stop-opacity="1"/>
<stop offset="0.273437" stop-color="rgb(84.87854%, 37.948608%, 25.401306%)" stop-opacity="1"/>
<stop offset="0.277344" stop-color="rgb(84.661865%, 37.918091%, 25.764465%)" stop-opacity="1"/>
<stop offset="0.28125" stop-color="rgb(84.446716%, 37.889099%, 26.127625%)" stop-opacity="1"/>
<stop offset="0.285156" stop-color="rgb(84.230042%, 37.860107%, 26.489258%)" stop-opacity="1"/>
<stop offset="0.289063" stop-color="rgb(84.013367%, 37.831116%, 26.852417%)" stop-opacity="1"/>
<stop offset="0.292969" stop-color="rgb(83.796692%, 37.802124%, 27.215576%)" stop-opacity="1"/>
<stop offset="0.296875" stop-color="rgb(83.581543%, 37.773132%, 27.578735%)" stop-opacity="1"/>
<stop offset="0.300781" stop-color="rgb(83.364868%, 37.742615%, 27.941895%)" stop-opacity="1"/>
<stop offset="0.304688" stop-color="rgb(83.149719%, 37.713623%, 28.305054%)" stop-opacity="1"/>
<stop offset="0.308594" stop-color="rgb(82.933044%, 37.684631%, 28.666687%)" stop-opacity="1"/>
<stop offset="0.3125" stop-color="rgb(82.717896%, 37.65564%, 29.029846%)" stop-opacity="1"/>
<stop offset="0.316406" stop-color="rgb(82.501221%, 37.625122%, 29.393005%)" stop-opacity="1"/>
<stop offset="0.320312" stop-color="rgb(82.286072%, 37.59613%, 29.756165%)" stop-opacity="1"/>
<stop offset="0.324219" stop-color="rgb(82.069397%, 37.567139%, 30.119324%)" stop-opacity="1"/>
<stop offset="0.328125" stop-color="rgb(81.854248%, 37.538147%, 30.482483%)" stop-opacity="1"/>
<stop offset="0.332031" stop-color="rgb(81.637573%, 37.509155%, 30.844116%)" stop-opacity="1"/>
<stop offset="0.335938" stop-color="rgb(81.422424%, 37.480164%, 31.207275%)" stop-opacity="1"/>
<stop offset="0.339844" stop-color="rgb(81.20575%, 37.449646%, 31.570435%)" stop-opacity="1"/>
<stop offset="0.34375" stop-color="rgb(80.990601%, 37.420654%, 31.933594%)" stop-opacity="1"/>
<stop offset="0.347656" stop-color="rgb(80.773926%, 37.391663%, 32.296753%)" stop-opacity="1"/>
<stop offset="0.351562" stop-color="rgb(80.557251%, 37.362671%, 32.659912%)" stop-opacity="1"/>
<stop offset="0.355469" stop-color="rgb(80.340576%, 37.332153%, 33.021545%)" stop-opacity="1"/>
<stop offset="0.359375" stop-color="rgb(80.125427%, 37.303162%, 33.384705%)" stop-opacity="1"/>
<stop offset="0.363281" stop-color="rgb(79.908752%, 37.27417%, 33.747864%)" stop-opacity="1"/>
<stop offset="0.367187" stop-color="rgb(79.693604%, 37.245178%, 34.111023%)" stop-opacity="1"/>
<stop offset="0.371094" stop-color="rgb(79.476929%, 37.216187%, 34.474182%)" stop-opacity="1"/>
<stop offset="0.375" stop-color="rgb(79.26178%, 37.187195%, 34.837341%)" stop-opacity="1"/>
<stop offset="0.378906" stop-color="rgb(79.045105%, 37.156677%, 35.198975%)" stop-opacity="1"/>
<stop offset="0.382813" stop-color="rgb(78.829956%, 37.127686%, 35.562134%)" stop-opacity="1"/>
<stop offset="0.386719" stop-color="rgb(78.613281%, 37.098694%, 35.925293%)" stop-opacity="1"/>
<stop offset="0.390625" stop-color="rgb(78.398132%, 37.069702%, 36.288452%)" stop-opacity="1"/>
<stop offset="0.394531" stop-color="rgb(78.181458%, 37.039185%, 36.651611%)" stop-opacity="1"/>
<stop offset="0.398438" stop-color="rgb(77.966309%, 37.010193%, 37.014771%)" stop-opacity="1"/>
<stop offset="0.402344" stop-color="rgb(77.749634%, 36.981201%, 37.376404%)" stop-opacity="1"/>
<stop offset="0.40625" stop-color="rgb(77.532959%, 36.952209%, 37.739563%)" stop-opacity="1"/>
<stop offset="0.410156" stop-color="rgb(77.316284%, 36.923218%, 38.102722%)" stop-opacity="1"/>
<stop offset="0.414062" stop-color="rgb(77.101135%, 36.894226%, 38.465881%)" stop-opacity="1"/>
<stop offset="0.417969" stop-color="rgb(76.88446%, 36.863708%, 38.827515%)" stop-opacity="1"/>
<stop offset="0.421875" stop-color="rgb(76.669312%, 36.834717%, 39.190674%)" stop-opacity="1"/>
<stop offset="0.425781" stop-color="rgb(76.452637%, 36.805725%, 39.553833%)" stop-opacity="1"/>
<stop offset="0.429688" stop-color="rgb(76.237488%, 36.776733%, 39.916992%)" stop-opacity="1"/>
<stop offset="0.433594" stop-color="rgb(76.020813%, 36.746216%, 40.280151%)" stop-opacity="1"/>
<stop offset="0.4375" stop-color="rgb(75.805664%, 36.717224%, 40.643311%)" stop-opacity="1"/>
<stop offset="0.441406" stop-color="rgb(75.588989%, 36.688232%, 41.004944%)" stop-opacity="1"/>
<stop offset="0.445312" stop-color="rgb(75.37384%, 36.659241%, 41.368103%)" stop-opacity="1"/>
<stop offset="0.449219" stop-color="rgb(75.157166%, 36.630249%, 41.731262%)" stop-opacity="1"/>
<stop offset="0.453125" stop-color="rgb(74.942017%, 36.601257%, 42.094421%)" stop-opacity="1"/>
<stop offset="0.457031" stop-color="rgb(74.725342%, 36.57074%, 42.457581%)" stop-opacity="1"/>
<stop offset="0.460937" stop-color="rgb(74.508667%, 36.541748%, 42.82074%)" stop-opacity="1"/>
<stop offset="0.464844" stop-color="rgb(74.291992%, 36.512756%, 43.182373%)" stop-opacity="1"/>
<stop offset="0.46875" stop-color="rgb(74.076843%, 36.483765%, 43.545532%)" stop-opacity="1"/>
<stop offset="0.472656" stop-color="rgb(73.860168%, 36.453247%, 43.908691%)" stop-opacity="1"/>
<stop offset="0.476563" stop-color="rgb(73.64502%, 36.424255%, 44.271851%)" stop-opacity="1"/>
<stop offset="0.480469" stop-color="rgb(73.428345%, 36.395264%, 44.63501%)" stop-opacity="1"/>
<stop offset="0.484375" stop-color="rgb(73.213196%, 36.366272%, 44.998169%)" stop-opacity="1"/>
<stop offset="0.488281" stop-color="rgb(72.996521%, 36.33728%, 45.359802%)" stop-opacity="1"/>
<stop offset="0.492188" stop-color="rgb(72.781372%, 36.308289%, 45.722961%)" stop-opacity="1"/>
<stop offset="0.496094" stop-color="rgb(72.564697%, 36.277771%, 46.086121%)" stop-opacity="1"/>
<stop offset="0.5" stop-color="rgb(72.349548%, 36.248779%, 46.44928%)" stop-opacity="1"/>
<stop offset="0.503906" stop-color="rgb(72.132874%, 36.219788%, 46.812439%)" stop-opacity="1"/>
<stop offset="0.507812" stop-color="rgb(71.917725%, 36.190796%, 47.175598%)" stop-opacity="1"/>
<stop offset="0.511719" stop-color="rgb(71.70105%, 36.160278%, 47.537231%)" stop-opacity="1"/>
<stop offset="0.515625" stop-color="rgb(71.485901%, 36.131287%, 47.900391%)" stop-opacity="1"/>
<stop offset="0.519531" stop-color="rgb(71.269226%, 36.102295%, 48.26355%)" stop-opacity="1"/>
<stop offset="0.523438" stop-color="rgb(71.052551%, 36.073303%, 48.626709%)" stop-opacity="1"/>
<stop offset="0.527344" stop-color="rgb(70.835876%, 36.044312%, 48.989868%)" stop-opacity="1"/>
<stop offset="0.53125" stop-color="rgb(70.620728%, 36.01532%, 49.353027%)" stop-opacity="1"/>
<stop offset="0.535156" stop-color="rgb(70.404053%, 35.984802%, 49.714661%)" stop-opacity="1"/>
<stop offset="0.539062" stop-color="rgb(70.188904%, 35.955811%, 50.07782%)" stop-opacity="1"/>
<stop offset="0.542969" stop-color="rgb(69.972229%, 35.926819%, 50.440979%)" stop-opacity="1"/>
<stop offset="0.546875" stop-color="rgb(69.75708%, 35.897827%, 50.804138%)" stop-opacity="1"/>
<stop offset="0.550781" stop-color="rgb(69.540405%, 35.86731%, 51.167297%)" stop-opacity="1"/>
<stop offset="0.554687" stop-color="rgb(69.325256%, 35.838318%, 51.530457%)" stop-opacity="1"/>
<stop offset="0.558594" stop-color="rgb(69.108582%, 35.809326%, 51.89209%)" stop-opacity="1"/>
<stop offset="0.5625" stop-color="rgb(68.893433%, 35.780334%, 52.255249%)" stop-opacity="1"/>
<stop offset="0.566406" stop-color="rgb(68.676758%, 35.751343%, 52.618408%)" stop-opacity="1"/>
<stop offset="0.570313" stop-color="rgb(68.461609%, 35.722351%, 52.981567%)" stop-opacity="1"/>
<stop offset="0.574219" stop-color="rgb(68.244934%, 35.691833%, 53.343201%)" stop-opacity="1"/>
<stop offset="0.578125" stop-color="rgb(68.028259%, 35.662842%, 53.70636%)" stop-opacity="1"/>
<stop offset="0.582031" stop-color="rgb(67.811584%, 35.63385%, 54.069519%)" stop-opacity="1"/>
<stop offset="0.585938" stop-color="rgb(67.596436%, 35.604858%, 54.432678%)" stop-opacity="1"/>
<stop offset="0.589844" stop-color="rgb(67.379761%, 35.574341%, 54.795837%)" stop-opacity="1"/>
<stop offset="0.59375" stop-color="rgb(67.164612%, 35.545349%, 55.158997%)" stop-opacity="1"/>
<stop offset="0.597656" stop-color="rgb(66.947937%, 35.516357%, 55.52063%)" stop-opacity="1"/>
<stop offset="0.601563" stop-color="rgb(66.732788%, 35.487366%, 55.883789%)" stop-opacity="1"/>
<stop offset="0.605469" stop-color="rgb(66.516113%, 35.458374%, 56.246948%)" stop-opacity="1"/>
<stop offset="0.609375" stop-color="rgb(66.300964%, 35.429382%, 56.610107%)" stop-opacity="1"/>
<stop offset="0.613281" stop-color="rgb(66.08429%, 35.398865%, 56.973267%)" stop-opacity="1"/>
<stop offset="0.617188" stop-color="rgb(65.869141%, 35.369873%, 57.336426%)" stop-opacity="1"/>
<stop offset="0.621094" stop-color="rgb(65.652466%, 35.340881%, 57.698059%)" stop-opacity="1"/>
<stop offset="0.625" stop-color="rgb(65.437317%, 35.31189%, 58.061218%)" stop-opacity="1"/>
<stop offset="0.628906" stop-color="rgb(65.220642%, 35.281372%, 58.424377%)" stop-opacity="1"/>
<stop offset="0.632812" stop-color="rgb(65.003967%, 35.25238%, 58.787537%)" stop-opacity="1"/>
<stop offset="0.636719" stop-color="rgb(64.787292%, 35.223389%, 59.150696%)" stop-opacity="1"/>
<stop offset="0.640625" stop-color="rgb(64.572144%, 35.194397%, 59.513855%)" stop-opacity="1"/>
<stop offset="0.644531" stop-color="rgb(64.355469%, 35.165405%, 59.875488%)" stop-opacity="1"/>
<stop offset="0.648438" stop-color="rgb(64.14032%, 35.136414%, 60.238647%)" stop-opacity="1"/>
<stop offset="0.652344" stop-color="rgb(63.923645%, 35.105896%, 60.601807%)" stop-opacity="1"/>
<stop offset="0.65625" stop-color="rgb(63.708496%, 35.076904%, 60.964966%)" stop-opacity="1"/>
<stop offset="0.660156" stop-color="rgb(63.491821%, 35.047913%, 61.328125%)" stop-opacity="1"/>
<stop offset="0.664062" stop-color="rgb(63.276672%, 35.018921%, 61.691284%)" stop-opacity="1"/>
<stop offset="0.667969" stop-color="rgb(63.059998%, 34.988403%, 62.052917%)" stop-opacity="1"/>
<stop offset="0.671875" stop-color="rgb(62.844849%, 34.959412%, 62.416077%)" stop-opacity="1"/>
<stop offset="0.675781" stop-color="rgb(62.628174%, 34.93042%, 62.779236%)" stop-opacity="1"/>
<stop offset="0.679688" stop-color="rgb(62.413025%, 34.901428%, 63.142395%)" stop-opacity="1"/>
<stop offset="0.683594" stop-color="rgb(62.19635%, 34.872437%, 63.505554%)" stop-opacity="1"/>
<stop offset="0.6875" stop-color="rgb(61.981201%, 34.843445%, 63.868713%)" stop-opacity="1"/>
<stop offset="0.691406" stop-color="rgb(61.764526%, 34.812927%, 64.230347%)" stop-opacity="1"/>
<stop offset="0.695312" stop-color="rgb(61.547852%, 34.783936%, 64.593506%)" stop-opacity="1"/>
<stop offset="0.699219" stop-color="rgb(61.331177%, 34.754944%, 64.956665%)" stop-opacity="1"/>
<stop offset="0.703125" stop-color="rgb(61.116028%, 34.725952%, 65.319824%)" stop-opacity="1"/>
<stop offset="0.707031" stop-color="rgb(60.899353%, 34.695435%, 65.681458%)" stop-opacity="1"/>
<stop offset="0.710937" stop-color="rgb(60.684204%, 34.666443%, 66.044617%)" stop-opacity="1"/>
<stop offset="0.714844" stop-color="rgb(60.467529%, 34.637451%, 66.407776%)" stop-opacity="1"/>
<stop offset="0.71875" stop-color="rgb(60.25238%, 34.608459%, 66.770935%)" stop-opacity="1"/>
<stop offset="0.722656" stop-color="rgb(60.035706%, 34.579468%, 67.134094%)" stop-opacity="1"/>
<stop offset="0.726562" stop-color="rgb(59.820557%, 34.550476%, 67.497253%)" stop-opacity="1"/>
<stop offset="0.730469" stop-color="rgb(59.603882%, 34.519958%, 67.858887%)" stop-opacity="1"/>
<stop offset="0.734375" stop-color="rgb(59.388733%, 34.490967%, 68.222046%)" stop-opacity="1"/>
<stop offset="0.738281" stop-color="rgb(59.172058%, 34.461975%, 68.585205%)" stop-opacity="1"/>
<stop offset="0.742187" stop-color="rgb(58.956909%, 34.432983%, 68.948364%)" stop-opacity="1"/>
<stop offset="0.746094" stop-color="rgb(58.740234%, 34.402466%, 69.311523%)" stop-opacity="1"/>
<stop offset="0.75" stop-color="rgb(58.52356%, 34.373474%, 69.674683%)" stop-opacity="1"/>
<stop offset="0.753906" stop-color="rgb(58.306885%, 34.344482%, 70.036316%)" stop-opacity="1"/>
<stop offset="0.757813" stop-color="rgb(58.091736%, 34.315491%, 70.399475%)" stop-opacity="1"/>
<stop offset="0.761719" stop-color="rgb(57.875061%, 34.286499%, 70.762634%)" stop-opacity="1"/>
<stop offset="0.765625" stop-color="rgb(57.659912%, 34.257507%, 71.125793%)" stop-opacity="1"/>
<stop offset="0.769531" stop-color="rgb(57.443237%, 34.22699%, 71.488953%)" stop-opacity="1"/>
<stop offset="0.773438" stop-color="rgb(57.228088%, 34.197998%, 71.852112%)" stop-opacity="1"/>
<stop offset="0.777344" stop-color="rgb(57.011414%, 34.169006%, 72.213745%)" stop-opacity="1"/>
<stop offset="0.78125" stop-color="rgb(56.796265%, 34.140015%, 72.576904%)" stop-opacity="1"/>
<stop offset="0.785156" stop-color="rgb(56.57959%, 34.109497%, 72.940063%)" stop-opacity="1"/>
<stop offset="0.789063" stop-color="rgb(56.364441%, 34.080505%, 73.303223%)" stop-opacity="1"/>
<stop offset="0.792969" stop-color="rgb(56.147766%, 34.051514%, 73.666382%)" stop-opacity="1"/>
<stop offset="0.796875" stop-color="rgb(55.932617%, 34.022522%, 74.029541%)" stop-opacity="1"/>
<stop offset="0.800781" stop-color="rgb(55.715942%, 33.99353%, 74.391174%)" stop-opacity="1"/>
<stop offset="0.804688" stop-color="rgb(55.499268%, 33.964539%, 74.754333%)" stop-opacity="1"/>
<stop offset="0.808594" stop-color="rgb(55.282593%, 33.934021%, 75.117493%)" stop-opacity="1"/>
<stop offset="0.8125" stop-color="rgb(55.067444%, 33.905029%, 75.480652%)" stop-opacity="1"/>
<stop offset="0.816406" stop-color="rgb(54.850769%, 33.876038%, 75.843811%)" stop-opacity="1"/>
<stop offset="0.820312" stop-color="rgb(54.63562%, 33.847046%, 76.20697%)" stop-opacity="1"/>
<stop offset="0.824219" stop-color="rgb(54.418945%, 33.816528%, 76.568604%)" stop-opacity="1"/>
<stop offset="0.828125" stop-color="rgb(54.203796%, 33.787537%, 76.931763%)" stop-opacity="1"/>
<stop offset="0.832031" stop-color="rgb(53.987122%, 33.758545%, 77.294922%)" stop-opacity="1"/>
<stop offset="0.835938" stop-color="rgb(53.771973%, 33.729553%, 77.658081%)" stop-opacity="1"/>
<stop offset="0.839844" stop-color="rgb(53.555298%, 33.700562%, 78.019714%)" stop-opacity="1"/>
<stop offset="0.84375" stop-color="rgb(53.340149%, 33.67157%, 78.382874%)" stop-opacity="1"/>
<stop offset="0.847656" stop-color="rgb(53.123474%, 33.641052%, 78.746033%)" stop-opacity="1"/>
<stop offset="0.851562" stop-color="rgb(52.908325%, 33.612061%, 79.109192%)" stop-opacity="1"/>
<stop offset="0.855469" stop-color="rgb(52.69165%, 33.583069%, 79.472351%)" stop-opacity="1"/>
<stop offset="0.859375" stop-color="rgb(52.476501%, 33.554077%, 79.83551%)" stop-opacity="1"/>
<stop offset="0.863281" stop-color="rgb(52.259827%, 33.52356%, 80.197144%)" stop-opacity="1"/>
<stop offset="0.867188" stop-color="rgb(52.043152%, 33.494568%, 80.560303%)" stop-opacity="1"/>
<stop offset="0.871094" stop-color="rgb(51.826477%, 33.465576%, 80.923462%)" stop-opacity="1"/>
<stop offset="0.875" stop-color="rgb(51.611328%, 33.436584%, 81.286621%)" stop-opacity="1"/>
<stop offset="0.878906" stop-color="rgb(51.394653%, 33.407593%, 81.64978%)" stop-opacity="1"/>
<stop offset="0.882812" stop-color="rgb(51.179504%, 33.378601%, 82.012939%)" stop-opacity="1"/>
<stop offset="0.886719" stop-color="rgb(50.96283%, 33.348083%, 82.374573%)" stop-opacity="1"/>
<stop offset="0.890625" stop-color="rgb(50.747681%, 33.319092%, 82.737732%)" stop-opacity="1"/>
<stop offset="0.894531" stop-color="rgb(50.531006%, 33.2901%, 83.100891%)" stop-opacity="1"/>
<stop offset="0.898437" stop-color="rgb(50.315857%, 33.261108%, 83.46405%)" stop-opacity="1"/>
<stop offset="0.902344" stop-color="rgb(50.099182%, 33.230591%, 83.827209%)" stop-opacity="1"/>
<stop offset="0.90625" stop-color="rgb(49.884033%, 33.201599%, 84.190369%)" stop-opacity="1"/>
<stop offset="0.910156" stop-color="rgb(49.667358%, 33.172607%, 84.552002%)" stop-opacity="1"/>
<stop offset="0.914062" stop-color="rgb(49.452209%, 33.143616%, 84.915161%)" stop-opacity="1"/>
<stop offset="0.917969" stop-color="rgb(49.235535%, 33.114624%, 85.27832%)" stop-opacity="1"/>
<stop offset="0.921875" stop-color="rgb(49.01886%, 33.085632%, 85.641479%)" stop-opacity="1"/>
<stop offset="0.925781" stop-color="rgb(48.802185%, 33.055115%, 86.004639%)" stop-opacity="1"/>
<stop offset="0.929687" stop-color="rgb(48.587036%, 33.026123%, 86.367798%)" stop-opacity="1"/>
<stop offset="0.933594" stop-color="rgb(48.370361%, 32.997131%, 86.729431%)" stop-opacity="1"/>
<stop offset="0.9375" stop-color="rgb(48.155212%, 32.96814%, 87.09259%)" stop-opacity="1"/>
<stop offset="0.941406" stop-color="rgb(47.938538%, 32.937622%, 87.45575%)" stop-opacity="1"/>
<stop offset="0.945313" stop-color="rgb(47.723389%, 32.90863%, 87.818909%)" stop-opacity="1"/>
<stop offset="0.949219" stop-color="rgb(47.506714%, 32.879639%, 88.182068%)" stop-opacity="1"/>
<stop offset="0.953125" stop-color="rgb(47.291565%, 32.850647%, 88.545227%)" stop-opacity="1"/>
<stop offset="0.957031" stop-color="rgb(47.07489%, 32.821655%, 88.90686%)" stop-opacity="1"/>
<stop offset="0.960938" stop-color="rgb(46.859741%, 32.792664%, 89.27002%)" stop-opacity="1"/>
<stop offset="0.964844" stop-color="rgb(46.643066%, 32.762146%, 89.633179%)" stop-opacity="1"/>
<stop offset="0.96875" stop-color="rgb(46.427917%, 32.733154%, 89.996338%)" stop-opacity="1"/>
<stop offset="0.972656" stop-color="rgb(46.211243%, 32.704163%, 90.359497%)" stop-opacity="1"/>
<stop offset="0.976562" stop-color="rgb(45.994568%, 32.675171%, 90.722656%)" stop-opacity="1"/>
<stop offset="0.980469" stop-color="rgb(45.777893%, 32.644653%, 91.08429%)" stop-opacity="1"/>
<stop offset="0.984375" stop-color="rgb(45.562744%, 32.615662%, 91.447449%)" stop-opacity="1"/>
<stop offset="0.988281" stop-color="rgb(45.346069%, 32.58667%, 91.810608%)" stop-opacity="1"/>
<stop offset="0.992188" stop-color="rgb(45.13092%, 32.557678%, 92.173767%)" stop-opacity="1"/>
<stop offset="0.996094" stop-color="rgb(44.914246%, 32.528687%, 92.5354%)" stop-opacity="1"/>
<stop offset="1" stop-color="rgb(44.699097%, 32.499695%, 92.89856%)" stop-opacity="1"/>
</linearGradient>
</defs>
<g clip-path="url(#clip-0)">
<g clip-path="url(#clip-1)">
<path fill-rule="nonzero" fill="url(#linear-pattern-0)" d="M 20.632812 5.613281 L 20.632812 317.269531 L 332.292969 317.269531 L 332.292969 5.613281 Z M 20.632812 5.613281 "/>
</g>
</g>
<path fill-rule="nonzero" fill="rgb(44.709778%, 32.548523%, 92.939758%)" fill-opacity="1" d="M 176.460938 51.273438 C 176.460938 52.769531 176.390625 54.261719 176.242188 55.75 C 176.09375 57.238281 175.875 58.714844 175.585938 60.183594 C 175.292969 61.648438 174.929688 63.097656 174.496094 64.527344 C 174.0625 65.960938 173.558594 67.367188 172.984375 68.746094 C 172.414062 70.128906 171.773438 71.480469 171.070312 72.796875 C 170.367188 74.117188 169.597656 75.398438 168.765625 76.640625 C 167.9375 77.886719 167.046875 79.085938 166.097656 80.242188 C 165.148438 81.398438 164.144531 82.503906 163.089844 83.5625 C 162.03125 84.621094 160.925781 85.621094 159.769531 86.570312 C 158.613281 87.519531 157.414062 88.410156 156.167969 89.242188 C 154.925781 90.070312 153.644531 90.839844 152.324219 91.542969 C 151.007812 92.25 149.65625 92.886719 148.273438 93.460938 C 146.894531 94.03125 145.488281 94.535156 144.054688 94.96875 C 142.625 95.402344 141.175781 95.765625 139.707031 96.058594 C 138.242188 96.351562 136.765625 96.570312 135.277344 96.714844 C 133.789062 96.863281 132.296875 96.9375 130.800781 96.9375 C 129.304688 96.9375 127.8125 96.863281 126.324219 96.714844 C 124.835938 96.570312 123.359375 96.351562 121.890625 96.058594 C 120.425781 95.765625 118.976562 95.402344 117.546875 94.96875 C 116.113281 94.535156 114.707031 94.03125 113.328125 93.460938 C 111.945312 92.886719 110.59375 92.25 109.277344 91.542969 C 107.957031 90.839844 106.675781 90.070312 105.433594 89.242188 C 104.1875 88.410156 102.988281 87.519531 101.832031 86.570312 C 100.675781 85.621094 99.570312 84.621094 98.511719 83.5625 C 97.457031 82.503906 96.453125 81.398438 95.503906 80.242188 C 94.554688 79.085938 93.664062 77.886719 92.835938 76.640625 C 92.003906 75.398438 91.234375 74.117188 90.53125 72.796875 C 89.824219 71.480469 89.1875 70.128906 88.613281 68.746094 C 88.042969 67.367188 87.539062 65.960938 87.105469 64.527344 C 86.671875 63.097656 86.308594 61.648438 86.015625 60.183594 C 85.722656 58.714844 85.503906 57.238281 85.359375 55.75 C 85.210938 54.261719 85.140625 52.769531 85.140625 51.273438 C 85.140625 49.777344 85.210938 48.285156 85.359375 46.796875 C 85.503906 45.308594 85.722656 43.832031 86.015625 42.367188 C 86.308594 40.898438 86.671875 39.449219 87.105469 38.019531 C 87.539062 36.589844 88.042969 35.183594 88.613281 33.800781 C 89.1875 32.417969 89.824219 31.066406 90.53125 29.75 C 91.234375 28.429688 92.003906 27.148438 92.835938 25.90625 C 93.664062 24.664062 94.554688 23.460938 95.503906 22.304688 C 96.453125 21.152344 97.457031 20.042969 98.511719 18.988281 C 99.570312 17.929688 100.675781 16.925781 101.832031 15.976562 C 102.988281 15.027344 104.1875 14.136719 105.433594 13.308594 C 106.675781 12.476562 107.957031 11.710938 109.277344 11.003906 C 110.59375 10.300781 111.945312 9.660156 113.328125 9.089844 C 114.707031 8.515625 116.113281 8.011719 117.546875 7.578125 C 118.976562 7.144531 120.425781 6.78125 121.890625 6.488281 C 123.359375 6.199219 124.835938 5.980469 126.324219 5.832031 C 127.8125 5.6875 129.304688 5.613281 130.800781 5.613281 C 132.296875 5.613281 133.789062 5.6875 135.277344 5.832031 C 136.765625 5.980469 138.242188 6.199219 139.707031 6.488281 C 141.175781 6.78125 142.625 7.144531 144.054688 7.578125 C 145.488281 8.011719 146.894531 8.515625 148.273438 9.089844 C 149.65625 9.660156 151.007812 10.300781 152.324219 11.003906 C 153.644531 11.710938 154.925781 12.476562 156.167969 13.308594 C 157.414062 14.136719 158.613281 15.027344 159.769531 15.976562 C 160.925781 16.925781 162.03125 17.929688 163.089844 18.988281 C 164.144531 20.042969 165.148438 21.152344 166.097656 22.304688 C 167.046875 23.460938 167.9375 24.664062 168.765625 25.90625 C 169.597656 27.148438 170.367188 28.429688 171.070312 29.75 C 171.777344 31.066406 172.414062 32.417969 172.984375 33.800781 C 173.558594 35.183594 174.0625 36.589844 174.496094 38.019531 C 174.929688 39.449219 175.292969 40.898438 175.585938 42.367188 C 175.875 43.832031 176.09375 45.308594 176.242188 46.796875 C 176.390625 48.285156 176.460938 49.777344 176.460938 51.273438 Z M 176.460938 51.273438 "/>
<path fill-rule="nonzero" fill="rgb(0%, 0%, 0%)" fill-opacity="1" d="M 435.304688 71.734375 L 453.496094 71.734375 C 457.722656 71.734375 459.742188 71.734375 459.742188 67.507812 C 459.742188 65.210938 457.722656 65.210938 454.140625 65.210938 L 436.589844 65.210938 L 441 41.132812 C 441.828125 36.722656 444.859375 21.742188 446.054688 19.261719 C 447.984375 15.21875 451.566406 12.09375 455.976562 12.09375 C 456.804688 12.09375 462.316406 12.09375 466.359375 15.863281 C 457.078125 16.691406 454.964844 24.042969 454.964844 27.257812 C 454.964844 32.128906 458.734375 34.609375 462.777344 34.609375 C 468.195312 34.609375 474.351562 30.015625 474.351562 21.925781 C 474.351562 12.277344 464.613281 7.40625 455.976562 7.40625 C 448.808594 7.40625 435.578125 11.175781 429.238281 32.128906 C 427.953125 36.539062 427.308594 38.652344 422.257812 65.210938 L 407.738281 65.210938 C 403.695312 65.210938 401.398438 65.210938 401.398438 69.160156 C 401.398438 71.734375 403.238281 71.734375 407.28125 71.734375 L 421.152344 71.734375 L 405.351562 155.085938 C 401.582031 175.484375 398 194.691406 387.066406 194.691406 C 386.238281 194.691406 380.910156 194.691406 376.960938 190.921875 C 386.605469 190.28125 388.535156 182.652344 388.535156 179.527344 C 388.535156 174.65625 384.675781 172.085938 380.726562 172.085938 C 375.214844 172.085938 369.148438 176.773438 369.148438 184.765625 C 369.148438 194.230469 378.429688 199.285156 387.066406 199.285156 C 398.644531 199.285156 407.097656 186.878906 410.863281 178.886719 C 417.570312 165.558594 422.441406 140.105469 422.714844 138.636719 Z M 435.304688 71.734375 "/>
<path fill-rule="nonzero" fill="rgb(0%, 0%, 0%)" fill-opacity="1" d="M 718.332031 107.574219 C 706.757812 116.488281 701.058594 125.125 699.3125 127.792969 C 689.851562 142.402344 688.195312 155.636719 688.195312 155.910156 C 688.195312 158.390625 690.675781 158.390625 692.421875 158.390625 C 696.007812 158.390625 696.191406 158.023438 697.015625 154.164062 C 701.886719 133.488281 714.289062 115.84375 738.179688 106.105469 C 740.660156 105.277344 741.304688 104.816406 741.304688 103.347656 C 741.304688 101.875 740.015625 101.234375 739.648438 101.050781 C 730.371094 97.464844 704.828125 86.898438 696.832031 51.519531 C 696.191406 48.945312 696.007812 48.300781 692.421875 48.300781 C 690.675781 48.300781 688.195312 48.300781 688.195312 50.875 C 688.195312 51.242188 690.035156 64.566406 698.945312 78.71875 C 703.171875 85.058594 709.238281 92.410156 718.332031 99.121094 L 561.675781 99.121094 C 557.910156 99.121094 554.050781 99.121094 554.050781 103.347656 C 554.050781 107.574219 557.910156 107.574219 561.675781 107.574219 Z M 718.332031 107.574219 "/>
<path fill-rule="nonzero" fill="rgb(0%, 0%, 0%)" fill-opacity="1" d="M 845.992188 83.589844 L 845.992188 140.105469 C 845.992188 149.570312 843.695312 149.570312 829.546875 149.570312 L 829.546875 156.09375 C 836.988281 155.910156 847.738281 155.453125 853.4375 155.453125 C 858.855469 155.453125 869.882812 155.910156 877.050781 156.09375 L 877.050781 149.570312 C 862.898438 149.570312 860.601562 149.570312 860.601562 140.105469 L 860.601562 101.234375 C 860.601562 79.363281 875.578125 67.507812 889.085938 67.507812 C 902.316406 67.507812 904.613281 78.902344 904.613281 90.941406 L 904.613281 140.105469 C 904.613281 149.570312 902.316406 149.570312 888.167969 149.570312 L 888.167969 156.09375 C 895.609375 155.910156 906.359375 155.453125 912.054688 155.453125 C 917.476562 155.453125 928.503906 155.910156 935.667969 156.09375 L 935.667969 149.570312 C 921.519531 149.570312 919.222656 149.570312 919.222656 140.105469 L 919.222656 101.234375 C 919.222656 79.363281 934.199219 67.507812 947.707031 67.507812 C 960.9375 67.507812 963.234375 78.902344 963.234375 90.941406 L 963.234375 140.105469 C 963.234375 149.570312 960.9375 149.570312 946.785156 149.570312 L 946.785156 156.09375 C 954.230469 155.910156 964.980469 155.453125 970.675781 155.453125 C 976.097656 155.453125 987.121094 155.910156 994.289062 156.09375 L 994.289062 149.570312 C 983.261719 149.570312 978.027344 149.570312 977.84375 143.230469 L 977.84375 102.980469 C 977.84375 84.785156 977.84375 78.257812 971.320312 70.722656 C 968.378906 67.140625 961.394531 62.914062 949.175781 62.914062 C 931.441406 62.914062 922.164062 75.503906 918.578125 83.589844 C 915.640625 65.210938 900.019531 62.914062 890.554688 62.914062 C 875.121094 62.914062 865.195312 71.917969 859.316406 85.058594 L 859.316406 62.914062 L 829.546875 65.210938 L 829.546875 71.734375 C 844.339844 71.734375 845.992188 73.207031 845.992188 83.589844 Z M 845.992188 83.589844 "/>
<path fill-rule="nonzero" fill="rgb(0%, 0%, 0%)" fill-opacity="1" d="M 1035.886719 62.914062 L 1006.394531 65.210938 L 1006.394531 71.734375 C 1020.085938 71.734375 1022.011719 73.023438 1022.011719 83.3125 L 1022.011719 140.105469 C 1022.011719 149.570312 1019.625 149.570312 1005.566406 149.570312 L 1005.566406 156.09375 C 1012.273438 155.910156 1023.667969 155.453125 1028.722656 155.453125 C 1036.164062 155.453125 1043.515625 155.910156 1050.679688 156.09375 L 1050.679688 149.570312 C 1036.714844 149.570312 1035.886719 148.46875 1035.886719 140.289062 Z M 1036.714844 26.15625 C 1036.714844 19.445312 1031.476562 15.035156 1025.597656 15.035156 C 1019.074219 15.035156 1014.386719 20.734375 1014.386719 26.15625 C 1014.386719 31.851562 1019.074219 37.367188 1025.597656 37.367188 C 1031.476562 37.367188 1036.714844 32.957031 1036.714844 26.15625 Z M 1036.714844 26.15625 "/>
<path fill-rule="nonzero" fill="rgb(0%, 0%, 0%)" fill-opacity="1" d="M 1080.433594 83.589844 L 1080.433594 140.105469 C 1080.433594 149.570312 1078.136719 149.570312 1063.984375 149.570312 L 1063.984375 156.09375 C 1071.425781 155.910156 1082.175781 155.453125 1087.875 155.453125 C 1093.296875 155.453125 1104.320312 155.910156 1111.488281 156.09375 L 1111.488281 149.570312 C 1097.339844 149.570312 1095.039062 149.570312 1095.039062 140.105469 L 1095.039062 101.234375 C 1095.039062 79.363281 1110.015625 67.507812 1123.523438 67.507812 C 1136.753906 67.507812 1139.050781 78.902344 1139.050781 90.941406 L 1139.050781 140.105469 C 1139.050781 149.570312 1136.753906 149.570312 1122.605469 149.570312 L 1122.605469 156.09375 C 1130.046875 155.910156 1140.796875 155.453125 1146.496094 155.453125 C 1151.914062 155.453125 1162.941406 155.910156 1170.109375 156.09375 L 1170.109375 149.570312 C 1159.082031 149.570312 1153.84375 149.570312 1153.660156 143.230469 L 1153.660156 102.980469 C 1153.660156 84.785156 1153.660156 78.257812 1147.136719 70.722656 C 1144.195312 67.140625 1137.214844 62.914062 1124.992188 62.914062 C 1109.558594 62.914062 1099.636719 71.917969 1093.753906 85.058594 L 1093.753906 62.914062 L 1063.984375 65.210938 L 1063.984375 71.734375 C 1078.777344 71.734375 1080.433594 73.207031 1080.433594 83.589844 Z M 1080.433594 83.589844 "/>
<path fill-rule="nonzero" fill="rgb(0%, 0%, 0%)" fill-opacity="1" d="M 848.710938 267.042969 C 847.242188 272.003906 842.371094 280 834.835938 280 C 834.378906 280 829.96875 280 826.84375 277.980469 C 832.90625 276.050781 833.367188 270.71875 833.367188 269.800781 C 833.367188 266.582031 830.886719 264.378906 827.488281 264.378906 C 823.351562 264.378906 819.035156 267.871094 819.035156 273.382812 C 819.035156 280.734375 827.304688 284.136719 834.5625 284.136719 C 841.359375 284.136719 847.425781 279.816406 851.101562 273.660156 C 854.589844 281.472656 862.769531 284.136719 868.648438 284.136719 C 885.648438 284.136719 894.652344 265.664062 894.652344 261.53125 C 894.652344 259.601562 892.722656 259.601562 892.261719 259.601562 C 890.242188 259.601562 890.058594 260.335938 889.507812 262.171875 C 886.382812 272.375 877.5625 280 869.292969 280 C 863.320312 280 860.195312 276.050781 860.195312 270.445312 C 860.195312 266.582031 863.78125 253.167969 867.914062 236.71875 C 870.855469 225.324219 877.5625 221.648438 882.429688 221.648438 C 882.707031 221.648438 887.300781 221.648438 890.332031 223.761719 C 885.648438 225.046875 883.902344 229.183594 883.902344 231.847656 C 883.902344 235.15625 886.382812 237.359375 889.78125 237.359375 C 893.179688 237.359375 898.050781 234.511719 898.050781 228.355469 C 898.050781 220.085938 888.585938 217.511719 882.707031 217.511719 C 875.265625 217.511719 869.382812 222.382812 866.167969 227.988281 C 863.503906 222.015625 856.703125 217.511719 848.433594 217.511719 C 831.898438 217.511719 822.433594 235.707031 822.433594 240.117188 C 822.433594 242.046875 824.546875 242.046875 824.914062 242.046875 C 826.84375 242.046875 827.027344 241.496094 827.761719 239.566406 C 831.4375 227.988281 840.71875 221.648438 847.976562 221.648438 C 852.84375 221.648438 856.886719 224.3125 856.886719 231.386719 C 856.886719 234.421875 855.050781 241.773438 853.765625 246.828125 Z M 848.710938 267.042969 "/>
<path fill-rule="nonzero" fill="rgb(0%, 0%, 0%)" fill-opacity="1" d="M 938.742188 280.277344 C 938.742188 288.457031 937.269531 297.921875 927.257812 307.292969 C 926.613281 307.9375 926.152344 308.394531 926.152344 309.132812 C 926.152344 310.140625 927.347656 311.152344 928.265625 311.152344 C 930.289062 311.152344 942.875 299.390625 942.875 281.746094 C 942.875 272.648438 939.382812 265.664062 932.585938 265.664062 C 927.714844 265.664062 924.132812 269.523438 924.132812 274.121094 C 924.132812 278.804688 927.53125 282.664062 932.675781 282.664062 C 936.261719 282.664062 938.558594 280.277344 938.742188 280.277344 Z M 938.742188 280.277344 "/>
<path fill-rule="nonzero" fill="rgb(0%, 0%, 0%)" fill-opacity="1" d="M 1039.660156 226.976562 C 1040.304688 224.957031 1040.304688 224.585938 1040.304688 223.761719 C 1040.304688 220.820312 1037.914062 218.980469 1035.433594 218.980469 C 1033.78125 218.980469 1031.023438 219.71875 1029.371094 222.566406 C 1028.910156 223.484375 1027.714844 228.171875 1026.980469 231.113281 L 1023.949219 243.425781 C 1023.03125 246.917969 1018.4375 265.574219 1017.976562 267.136719 C 1017.886719 267.136719 1011.363281 280 999.875 280 C 989.769531 280 989.769531 270.445312 989.769531 267.777344 C 989.769531 259.785156 993.167969 250.503906 997.578125 239.105469 C 999.417969 234.421875 1000.152344 232.582031 1000.152344 230.101562 C 1000.152344 223.027344 994.085938 217.511719 986.09375 217.511719 C 971.210938 217.511719 964.59375 237.636719 964.59375 240.117188 C 964.59375 242.046875 966.617188 242.046875 967.074219 242.046875 C 969.097656 242.046875 969.28125 241.3125 969.738281 239.660156 C 973.414062 227.4375 979.753906 221.648438 985.636719 221.648438 C 988.207031 221.648438 989.402344 223.300781 989.402344 226.886719 C 989.402344 230.285156 988.023438 233.5 987.289062 235.429688 C 980.214844 253.441406 978.742188 258.863281 978.742188 265.390625 C 978.742188 267.871094 978.742188 274.855469 984.441406 279.542969 C 989.035156 283.402344 995.28125 284.136719 999.234375 284.136719 C 1005.113281 284.136719 1010.441406 281.929688 1015.3125 277.519531 C 1013.382812 285.605469 1011.820312 291.855469 1005.574219 299.207031 C 1001.621094 303.800781 995.742188 308.671875 987.839844 308.671875 C 986.828125 308.671875 979.9375 308.671875 976.8125 303.800781 C 984.808594 302.882812 984.808594 295.808594 984.808594 295.621094 C 984.808594 290.9375 980.488281 290.015625 979.019531 290.015625 C 975.34375 290.015625 970.472656 292.957031 970.472656 299.757812 C 970.472656 307.292969 977.550781 312.808594 988.023438 312.808594 C 1002.910156 312.808594 1021.101562 301.230469 1025.695312 282.847656 Z M 1039.660156 226.976562 "/>
<path fill-rule="nonzero" fill="rgb(0%, 0%, 0%)" fill-opacity="1" d="M 1079.667969 280.277344 C 1079.667969 288.457031 1078.199219 297.921875 1068.183594 307.292969 C 1067.542969 307.9375 1067.082031 308.394531 1067.082031 309.132812 C 1067.082031 310.140625 1068.277344 311.152344 1069.195312 311.152344 C 1071.214844 311.152344 1083.804688 299.390625 1083.804688 281.746094 C 1083.804688 272.648438 1080.3125 265.664062 1073.515625 265.664062 C 1068.644531 265.664062 1065.0625 269.523438 1065.0625 274.121094 C 1065.0625 278.804688 1068.460938 282.664062 1073.605469 282.664062 C 1077.1875 282.664062 1079.484375 280.277344 1079.667969 280.277344 Z M 1079.667969 280.277344 "/>
<path fill-rule="nonzero" fill="rgb(0%, 0%, 0%)" fill-opacity="1" d="M 1123.347656 269.707031 C 1127.207031 265.847656 1129.871094 263 1142.367188 252.984375 C 1145.492188 250.503906 1156.609375 241.589844 1160.835938 237.453125 C 1169.839844 228.632812 1175.445312 221.09375 1175.445312 219.351562 C 1175.445312 217.511719 1173.515625 217.511719 1172.964844 217.511719 C 1171.585938 217.511719 1171.21875 217.878906 1170.480469 218.980469 C 1165.886719 225.78125 1162.765625 227.988281 1159.179688 227.988281 C 1157.433594 227.988281 1155.230469 227.894531 1150.820312 223.578125 C 1145.765625 218.613281 1142.550781 217.511719 1139.152344 217.511719 C 1127.296875 217.511719 1119.394531 230.378906 1119.394531 234.789062 C 1119.394531 236.167969 1120.867188 236.625 1121.878906 236.625 C 1123.621094 236.625 1123.898438 236.167969 1124.542969 234.511719 C 1126.746094 229.367188 1135.015625 229.089844 1137.40625 229.089844 C 1140.804688 229.089844 1144.570312 229.917969 1146.683594 230.378906 C 1154.769531 232.125 1155.875 232.125 1159.546875 232.125 C 1155.6875 236.167969 1153.023438 238.832031 1138.96875 250.042969 C 1127.480469 259.140625 1123.53125 262.90625 1120.683594 265.847656 C 1111.863281 274.578125 1107.542969 281.011719 1107.542969 282.390625 C 1107.542969 284.136719 1109.472656 284.136719 1110.023438 284.136719 C 1111.496094 284.136719 1111.863281 283.859375 1112.597656 282.664062 C 1116.546875 277.058594 1121.140625 273.660156 1126.195312 273.660156 C 1127.941406 273.660156 1130.144531 273.84375 1134.097656 277.519531 C 1138.691406 281.929688 1141.632812 284.136719 1146.410156 284.136719 C 1162.210938 284.136719 1172.042969 266.308594 1172.042969 261.253906 C 1172.042969 259.507812 1170.480469 259.324219 1169.5625 259.324219 C 1167.816406 259.324219 1167.449219 260.058594 1166.898438 261.714844 C 1164.140625 269.066406 1155.414062 272.648438 1148.15625 272.648438 C 1144.753906 272.648438 1141.082031 271.914062 1137.40625 270.996094 C 1130.605469 269.523438 1129.410156 269.523438 1126.746094 269.523438 C 1126.472656 269.523438 1124.265625 269.523438 1123.347656 269.707031 Z M 1123.347656 269.707031 "/>
</svg>
